<svg width="100" height="100" viewBox="0 0 100 100" fill="none" xmlns="http://www.w3.org/2000/svg">
<rect width="100" height="100" fill="white"/>
<path d="M64.8675 71.6767V83.3633C64.8648 84.594 64.3887 85.7733 63.5437 86.6426C62.6986 87.5118 61.5537 88 60.3599 88H20.4973C19.3046 88 18.1606 87.5115 17.3172 86.6419C16.4738 85.7724 16 84.593 16 83.3633V16.6367C16 15.407 16.4738 14.2276 17.3172 13.3581C18.1606 12.4885 19.3046 12 20.4973 12H60.3599C61.5537 12 62.6986 12.4882 63.5437 13.3574C64.3887 14.2267 64.8648 15.406 64.8675 16.6367V25.1619" stroke="#F37133" stroke-width="2" stroke-linecap="round" stroke-linejoin="round"/>
<path d="M60.779 71.6653V77.3664H20.0986V20.5771H60.779V25.1611" stroke="#F37133" stroke-width="2" stroke-linecap="round" stroke-linejoin="round"/>
<path d="M35.7983 83.0469H45.0792" stroke="#F37133" stroke-width="2" stroke-linecap="round" stroke-linejoin="round"/>
<path d="M39.335 16.1104H41.5427" stroke="#F37133" stroke-width="2" stroke-linecap="round" stroke-linejoin="round"/>
<path d="M61.1782 29.4082L39.3662 40.7576V46.9751H83.0005V40.7576L61.1782 29.4082Z" stroke="#F37133" stroke-width="2" stroke-linecap="round" stroke-linejoin="round"/>
<path d="M39.3662 67.9678H83.0005" stroke="#F37133" stroke-width="2" stroke-linecap="round" stroke-linejoin="round"/>
<path d="M46.0098 46.9756V67.9673" stroke="#F37133" stroke-width="2" stroke-linecap="round" stroke-linejoin="round"/>
<path d="M76.3457 46.9756V67.9673" stroke="#F37133" stroke-width="2" stroke-linecap="round" stroke-linejoin="round"/>
<path d="M55.7808 46.9756V67.9673" stroke="#F37133" stroke-width="2" stroke-linecap="round" stroke-linejoin="round"/>
<path d="M66.585 46.9756V67.9673" stroke="#F37133" stroke-width="2" stroke-linecap="round" stroke-linejoin="round"/>
</svg>
